#!OML:ASF Y:\EmotionMaleHayes\Project 1\Capture day 1\Session 1\Male1.ASF
:FULLY-SPECIFIED
:DEGREES
123
root -10.4137 16.8596 -0.270567 125.471 74.3311 120.661
lowerback 16.281 -4.2998 -19.0689
upperback 1.89038 -8.91585 -3.62692
thorax -4.70577 -3.88403 8.20639
lowerneck -31.6505 3.34988 0.432045
upperneck 16.7873 3.40047 4.10881
head 10.411 2.153 2.03101
rclavicle 9.93923e-015 -2.22639e-014
rhumerus -90.6641 17.5473 -100.996
rradius 101.14
rwrist -22.3715
rhand -26.7428 -14.5752
rfingers 7.12502
rthumb -0.17166 -44.5548
lclavicle 9.93923e-015 -2.22639e-014
lhumerus -11.0846 -23.0684 85.9524
lradius 108.79
lwrist 11.2249
lhand -43.2378 -51.7045
lfingers 7.12502
lthumb -16.0874 -22.3523
rfemur -45.8415 -13.457 6.24796
rtibia 83.2614
rfoot -15.0683 -142.043
rtoes 14.3526
lfemur 14.8852 -4.01801 -38.6936
ltibia 19.2279
lfoot -9.34037 0.292215
ltoes -16.6857
124
root -9.89517 17.0143 -0.274941 125.786 74.4385 120.833
lowerback 16.1393 -4.53345 -19.1613
upperback 1.66029 -9.24612 -3.38905
thorax -4.74445 -4.0353 8.54867
lowerneck -31.7571 3.72807 0.75209
upperneck 17.0888 3.90852 3.49615
head 10.5452 2.32126 1.85325
rclavicle -4.37326e-015 -8.11041e-014
rhumerus -92.457 17.3813 -100.955
rradius 101.59
rwrist -22.4622
rhand -26.8195 -14.2702
rfingers 7.12502
rthumb -0.245712 -44.2498
lclavicle -4.37326e-015 -8.11041e-014
lhumerus -11.2058 -23.1929 85.9316
lradius 110.028
lwrist 11.6075
lhand -43.3277 -52.1302
lfingers 7.12502
lthumb -16.174 -22.785
rfemur -46.0658 -13.074 6.62774
rtibia 88.688
rfoot -46.2978 -111.202
rtoes 14.2285
lfemur 16.6777 -3.38829 -37.6888
ltibia 17.5943
lfoot -4.9787 0.15799
ltoes -14.6192
125
root -9.37872 17.1646 -0.276077 125.476 74.6055 120.352
lowerback 15.8481 -4.67669 -19.3841
upperback 1.48288 -9.43326 -3.13084
thorax -4.65276 -4.13083 8.93912
lowerneck -31.8123 4.05421 1.0713
upperneck 17.2856 4.36298 2.84278
head 10.6402 2.45834 1.64821
rclavicle -2.20651e-014 -3.73715e-014
rhumerus -94.0286 17.1912 -100.793
rradius 102.179
rwrist -22.5575
rhand -26.7998 -14.2884
rfingers 7.12502
rthumb -0.226725 -44.268
lclavicle -2.20651e-014 -3.73715e-014
lhumerus -11.3862 -23.5225 85.8578
lradius 111.475
lwrist 12.695
lhand -43.0517 -52.3394
lfingers 7.12502
lthumb -15.9081 -22.9728
rfemur -46.127 -12.3717 6.95713
rtibia 88.5548
rfoot -147.146 -114.899
rtoes 14.4604
lfemur 18.2639 -2.62671 -36.6534
ltibia 16.1393
lfoot -0.599283 0.465997
ltoes -10.7261
126
root -8.85886 17.3118 -0.272842 124.915 74.909 119.643
lowerback 15.4593 -4.74259 -19.5918
upperback 1.36804 -9.48123 -2.84925
thorax -4.47164 -4.17305 9.31437
lowerneck -31.9224 4.26036 1.30287
upperneck 17.5565 4.66425 2.31014
head 10.7741 2.53549 1.47786
rclavicle -2.08724e-014 -1.19271e-014
rhumerus -95.3645 16.8929 -100.632
rradius 102.781
rwrist -22.8304
rhand -26.8795 -14.555
rfingers 7.12502
rthumb -0.303742 -44.5346
lclavicle -2.08724e-014 -1.19271e-014
lhumerus -11.8488 -24.4122 85.8958
lradius 112.984
lwrist 13.8639
lhand -43.5194 -52.3961
lfingers 7.12502
lthumb -16.3585 -23.066
rfemur -45.9356 -11.4919 7.41908
rtibia 82.567
rfoot -172.216 -146.713
rtoes 13.5059
lfemur 19.8189 -1.75263 -35.447
ltibia 14.6836
lfoot 3.74568 1.24972
ltoes -5.51671
127
root -8.33872 17.4542 -0.266683 123.681 75.195 118.235
lowerback 15.1337 -4.74764 -19.8543
upperback 1.15825 -9.49038 -2.65417
thorax -4.45118 -4.17006 9.63735
lowerneck -31.8999 4.37932 1.43034
upperneck 17.9823 4.84155 2.00714
head 10.9402 2.57965 1.38685
rclavicle -9.62118e-014 -4.77083e-014
rhumerus -96.7202 16.5576 -100.7
rradius 103.261
rwrist -23.0761
rhand -27.2917 -14.7883
rfingers 7.12502
rthumb -0.701819 -44.7669
lclavicle -9.62118e-014 -4.77083e-014
lhumerus -12.7406 -25.3441 86.0159
lradius 114.401
lwrist 14.5296
lhand -44.0473 -52.6234
lfingers 7.12502
lthumb -16.8667 -23.3359
rfemur -45.5907 -10.5165 7.7225
rtibia 75.1871
rfoot -182.506 -180.785
rtoes 13.1532
lfemur 21.2466 -0.824005 -34.3533
ltibia 13.4175
lfoot 7.37621 2.10275
ltoes -1.17129
128
root -7.80144 17.6004 -0.249834 125.082 74.9071 119.759
lowerback 15.2107 -4.9745 -20.1204
upperback 1.01273 -9.87029 -2.53066
thorax -4.47915 -4.33936 9.96322
lowerneck -32.0013 4.67951 1.71603
upperneck 18.4524 5.17012 1.80736
head 11.146 2.71781 1.34074
rclavicle 1.66979e-014 7.15625e-015
rhumerus -97.9995 16.1757 -100.855
rradius 103.598
rwrist -23.1932
rhand -27.3099 -14.8722
rfingers 7.12502
rthumb -0.719443 -44.8507
lclavicle 1.66979e-014 7.15625e-015
lhumerus -13.842 -26.1687 86.0379
lradius 115.572
lwrist 14.4225
lhand -44.0473 -52.9568
lfingers 7.12502
lthumb -16.8667 -23.6693
rfemur -44.1376 -10.3164 7.71573
rtibia 68.7798
rfoot -182.938 -182.016
rtoes 14.821
lfemur 22.8339 -0.364831 -33.051
ltibia 12.8483
lfoot 9.87606 1.69869
ltoes 0.472407
129
root -7.28033 17.7264 -0.247205 124.017 75.0772 118.555
lowerback 14.8495 -4.99535 -20.2783
upperback 0.869277 -9.86246 -2.45138
thorax -4.4046 -4.33668 10.0914
lowerneck -32.2082 4.946 2.12922
upperneck 18.9868 5.46056 1.35123
head 11.4097 2.81037 1.17709
rclavicle 3.4191e-014 4.53229e-014
rhumerus -98.9185 15.7954 -100.9
rradius 103.931
rwrist -23.3209
rhand -26.8312 -15.2719
rfingers 7.12502
rthumb -0.257058 -45.2515
lclavicle 3.4191e-014 4.53229e-014
lhumerus -14.8322 -26.9893 85.9101
lradius 116.773
lwrist 14.4208
lhand -43.9028 -53.7729
lfingers 7.12502
lthumb -16.7277 -24.4736
rfemur -43.2238 -9.48371 7.74404
rtibia 62.8307
rfoot -183.607 -182.648
rtoes 16.2324
lfemur 23.9062 0.248195 -32.2248
ltibia 12.9627
lfoot 9.76752 1.27553
ltoes -3.31211
130
root -6.76741 17.8308 -0.250228 120.331 75.6473 114.515
lowerback 14.1656 -4.79584 -20.4903
upperback 0.673355 -9.50578 -2.33835
thorax -4.30528 -4.16557 10.2209
lowerneck -32.5265 5.17339 2.57547
upperneck 19.5508 5.71136 0.784489
head 11.714 2.86985 0.962133
rclavicle -4.57205e-015 -6.44062e-014
rhumerus -99.629 15.5841 -100.866
rradius 104.367
rwrist -23.5041
rhand -26.5792 -15.3498
rfingers 7.12502
rthumb -0.013663 -45.3295
lclavicle -4.57205e-015 -6.44062e-014
lhumerus -15.8605 -27.9406 85.8469
lradius 117.544
lwrist 13.4914
lhand -44.5107 -54.975
lfingers 7.12502
lthumb -17.3128 -25.7261
rfemur -42.6687 -8.10318 7.85445
rtibia 56.925
rfoot -183.901 -182.873
rtoes 15.9416
lfemur 24.5803 0.793182 -32.0473
ltibia 13.682
lfoot 9.01264 2.01841
ltoes -2.45449
131
root -6.24214 17.9241 -0.263441 119.588 75.7345 113.543
lowerback 13.5306 -4.90139 -20.4283
upperback 0.618971 -9.4922 -2.27405
thorax -4.0156 -4.1954 10.173
lowerneck -32.859 5.39498 2.93425
upperneck 20.0339 5.93442 0.444947
head 11.9838 2.94256 0.838869
rclavicle -2.97183e-014 -9.54166e-015
rhumerus -100.166 15.4838 -100.905
rradius 104.946
rwrist -23.9549
rhand -26.6953 -14.8761
rfingers 7.12502
rthumb -0.125796 -44.8558
lclavicle -2.97183e-014 -9.54166e-015
lhumerus -16.8818 -28.8203 85.7736
lradius 118.59
lwrist 13.0549
lhand -44.7723 -55.4641
lfingers 7.12502
lthumb -17.5645 -26.2376
rfemur -41.2344 -7.77071 7.75884
rtibia 50.1608
rfoot -183.386 -183.23
rtoes 14.6996
lfemur 25.1338 0.393976 -32.1266
ltibia 15.2044
lfoot 7.62876 3.53369
ltoes -1.46162
132
root -5.72205 18.0036 -0.285369 118.875 75.7246 112.634
lowerback 12.9176 -5.05487 -20.3191
upperback 0.529699 -9.54802 -2.25921
thorax -3.77162 -4.25123 10.0559
lowerneck -32.747 5.60444 3.14453
upperneck 20.3162 6.18163 0.276734
head 12.0918 3.04315 0.793413
rclavicle -2.44505e-014 2.54444e-014
rhumerus -100.778 15.4938 -101.058
rradius 105.689
rwrist -24.5342
rhand -26.749 -14.6995
rfingers 7.12502
rthumb -0.177682 -44.6792
lclavicle -2.44505e-014 2.54444e-014
lhumerus -18.1752 -29.4817 85.8048
lradius 119.444
lwrist 12.8189
lhand -44.1068 -55.8983
lfingers 7.12502
lthumb -16.924 -26.6157
rfemur -39.5123 -7.67712 7.55585
rtibia 43.117
rfoot -182.272 -183.278
rtoes 14.2493
lfemur 25.4178 0.117154 -32.3085
ltibia 17.5194
lfoot 6.3894 5.01755
ltoes -0.308147
133
root -5.20661 18.0668 -0.311173 118.521 75.8847 112.065
lowerback 11.9439 -5.27707 -20.0404
upperback 0.745153 -9.53625 -2.18514
thorax -3.01844 -4.35249 9.83161
lowerneck -32.8724 5.83639 3.38039
upperneck 20.3426 6.45708 0.0222008
head 12.1451 3.14532 0.717105
rclavicle 2.77305e-014 9.06458e-014
rhumerus -100.715 15.7183 -101.039
rradius 106.456
rwrist -24.8822
rhand -26.5214 -14.3926
rfingers 7.12502
rthumb 0.0421555 -44.3724
lclavicle 2.77305e-014 9.06458e-014
lhumerus -18.8142 -30.1458 85.5591
lradius 119.924
lwrist 12.2214
lhand -43.8745 -56.4817
lfingers 7.12502
lthumb -16.7004 -27.18
rfemur -37.8194 -7.41976 7.5494
rtibia 36.3725
rfoot -181.048 -183.472
rtoes 15.3559
lfemur 25.5426 0.192615 -32.056
ltibia 20.2979
lfoot 5.51047 6.04078
ltoes -0.533459
134
root -4.69339 18.1089 -0.340051 117.534 76.27 110.84
lowerback 11.9754 -5.28356 -19.5637
upperback 0.282125 -9.57455 -1.96448
thorax -3.58143 -4.30254 9.87506
lowerneck -32.8684 6.03557 3.51488
upperneck 20.8567 6.75229 -0.22714
head 12.368 3.2454 0.66987
rclavicle 3.98563e-014 7.31528e-014
rhumerus -101.441 15.88 -100.916
rradius 107.215
rwrist -24.9554
rhand -26.0271 -13.7656
rfingers 7.12502
rthumb 0.519552 -43.7447
lclavicle 3.98563e-014 7.31528e-014
lhumerus -20.975 -31.1011 86.5211
lradius 120.329
lwrist 10.2063
lhand -45.3725 -56.5577
lfingers 7.12502
lthumb -18.1421 -27.3837
rfemur -36.3406 -6.75723 7.74801
rtibia 30.1509
rfoot -179.812 -184.048
rtoes 17.1112
lfemur 25.6196 0.638432 -31.5387
ltibia 23.0939
lfoot 4.94585 6.56689
ltoes -3.78032
135
root -4.18424 18.132 -0.371715 116.105 76.7103 109.193
lowerback 11.205 -5.37208 -19.2313
upperback 0.325822 -9.46935 -1.71458
thorax -3.14035 -4.3175 9.85518
lowerneck -32.8406 6.1952 3.42731
upperneck 20.8105 7.03565 -0.29857
head 12.3483 3.35279 0.710198
rclavicle 2.29596e-014 -3.4191e-014
rhumerus -101.29 16.2922 -100.584
rradius 107.902
rwrist -24.7916
rhand -25.483 -13.5272
rfingers 7.12502
rthumb 1.04511 -43.5044
lclavicle 2.29596e-014 -3.4191e-014
lhumerus -22.2867 -31.4238 86.9608
lradius 120.956
lwrist 10.295
lhand -45.0772 -58.1009
lfingers 7.12502
lthumb -17.858 -28.9008
rfemur -35.1184 -5.94442 8.05319
rtibia 24.5983
rfoot -178.87 -184.696
rtoes 19.7628
lfemur 25.6228 1.04033 -31.1095
ltibia 25.957
lfoot 4.45145 6.72163
ltoes -7.0535
136
root -3.67739 18.1354 -0.403482 114.799 77.1245 107.654
lowerback 10.4182 -5.49072 -18.7302
upperback 0.377259 -9.38916 -1.5519
thorax -2.7155 -4.34218 9.65043
lowerneck -32.8863 6.33446 3.38827
upperneck 20.79 7.25109 -0.322903
head 12.3504 3.44046 0.750146
rclavicle -1.18774e-013 -2.74323e-014
rhumerus -101.003 16.6019 -100.35
rradius 108.628
rwrist -24.3151
rhand -25.1018 -13.5126
rfingers 7.12502
rthumb 1.41321 -43.4877
lclavicle -1.18774e-013 -2.74323e-014
lhumerus -23.5497 -31.5415 87.2446
lradius 121.28
lwrist 10.4776
lhand -44.214 -58.1884
lfingers 7.12502
lthumb -17.0272 -28.9146
rfemur -34.1973 -5.60942 8.55762
rtibia 19.9296
rfoot -178.284 -184.965
rtoes 21.9041
lfemur 25.5384 1.23747 -30.8134
ltibia 28.9418
lfoot 4.15559 6.53045
ltoes -8.05862
137
root -3.17083 18.1191 -0.434924 113.39 77.4356 106.043
lowerback 9.68624 -5.57075 -18.2125
upperback 0.466799 -9.27279 -1.48187
thorax -2.30811 -4.34381 9.34109
lowerneck -32.9827 6.52501 3.5247
upperneck 20.7781 7.49982 -0.51332
head 12.3805 3.53187 0.707912
rclavicle 2.15681e-014 4.45278e-014
rhumerus -100.494 16.7694 -100.202
rradius 109.287
rwrist -23.7209
rhand -24.8572 -13.0716
rfingers 7.12502
rthumb 1.64944 -43.045
lclavicle 2.15681e-014 4.45278e-014
lhumerus -25.2288 -32.4771 87.9241
lradius 120.001
lwrist 6.67994
lhand -48.2263 -62.8321
lfingers 7.12502
lthumb -20.8859 -33.9364
rfemur -33.4613 -6.53498 9.40961
rtibia 16.0442
rfoot -177.585 -184.349
rtoes 21.8254
lfemur 25.425 1.43127 -30.6141
ltibia 32.081
lfoot 4.21094 6.0412
ltoes -8.5931
